<?xml version="1.0" standalone="no"?>
<!DOCTYPE svg PUBLIC "-//W3C//DTD SVG 20010904//EN"
 "http://www.w3.org/TR/2001/REC-SVG-20010904/DTD/svg10.dtd">
<svg version="1.0" xmlns="http://www.w3.org/2000/svg"
 width="700.000000pt" height="700.000000pt" viewBox="0 0 700.000000 700.000000"
 preserveAspectRatio="xMidYMid meet">
<metadata>
Created by potrace 1.14, written by Peter Selinger 2001-2017
</metadata>
<g transform="translate(0.000000,700.000000) scale(0.100000,-0.100000)"
fill="#000000" stroke="none">
<path d="M775 6993 c-311 -41 -601 -269 -714 -563 -65 -167 -61 16 -61 -2935
0 -2407 2 -2691 16 -2766 64 -337 310 -601 654 -702 l75 -22 2715 -3 c2991 -2
2806 -6 2969 59 272 109 468 332 547 625 18 67 19 161 19 2814 0 2653 -1 2747
-19 2814 -96 354 -368 611 -711 671 -77 13 -411 15 -2774 14 -1477 -1 -2699
-4 -2716 -6z m3197 -1082 c646 -566 1107 -1393 1247 -2236 39 -234 46 -327 46
-595 -1 -249 -2 -273 -28 -391 -158 -740 -722 -1290 -1462 -1425 -125 -23
-469 -26 -585 -5 -122 21 -269 60 -360 96 -600 231 -1026 744 -1142 1373 -29
156 -31 510 -4 707 49 360 135 649 286 963 106 219 204 378 345 562 70 91 70
92 71 -18 2 -146 43 -291 122 -425 46 -79 159 -197 242 -252 246 -163 575
-179 827 -40 87 49 217 178 271 270 47 79 96 219 111 315 36 220 -18 704 -125
1132 -29 118 -29 116 -1 92 12 -11 75 -66 139 -123z"/>
<path d="M4367 4572 c-35 -124 -128 -315 -205 -417 -191 -256 -468 -418 -793
-466 -102 -15 -327 -7 -427 15 -223 48 -450 164 -590 299 -52 51 -48 55 -101
-108 -74 -226 -111 -407 -131 -640 -42 -482 85 -861 390 -1165 158 -158 325
-262 526 -329 159 -53 242 -66 429 -66 189 0 254 10 415 61 214 68 373 166
540 334 124 123 188 211 261 356 90 179 128 336 136 561 15 413 -72 877 -244
1298 -47 115 -160 352 -172 360 -4 2 -19 -40 -34 -93z m-152 -1037 c41 -175
58 -318 59 -505 1 -207 -10 -262 -84 -415 -84 -173 -207 -298 -375 -381 -126
-62 -224 -85 -360 -86 -144 0 -240 29 -347 105 -135 97 -214 239 -225 407 -10
159 39 291 148 402 85 85 187 135 360 177 318 77 536 187 704 357 92 93 82 98
120 -61z"/>
</g>
</svg>
