<?xml version="1.0" standalone="no"?>
<!DOCTYPE svg PUBLIC "-//W3C//DTD SVG 20010904//EN"
 "http://www.w3.org/TR/2001/REC-SVG-20010904/DTD/svg10.dtd">
<svg version="1.0" xmlns="http://www.w3.org/2000/svg"
 width="700.000000pt" height="700.000000pt" viewBox="0 0 700.000000 700.000000"
 preserveAspectRatio="xMidYMid meet">
<metadata>
Created by potrace 1.14, written by Peter Selinger 2001-2017
</metadata>
<g transform="translate(0.000000,700.000000) scale(0.100000,-0.100000)"
fill="#000000" stroke="none">
<path d="M0 3500 l0 -3500 3500 0 3500 0 0 3500 0 3500 -3500 0 -3500 0 0
-3500z m3884 2488 c575 -493 980 -1096 1204 -1788 171 -530 227 -1138 140
-1540 -72 -334 -242 -645 -487 -891 -701 -700 -1842 -703 -2543 -6 -276 275
-449 613 -515 1003 -21 129 -23 449 -4 609 71 589 270 1094 606 1540 l90 120
7 -106 c21 -338 204 -609 498 -736 101 -44 201 -63 323 -63 135 0 223 20 332
74 198 99 332 263 401 491 23 78 27 112 32 262 7 257 -33 564 -121 941 -19 78
-31 142 -29 142 3 0 33 -23 66 -52z"/>
<path d="M4380 4629 c-111 -472 -466 -825 -930 -925 -114 -25 -391 -25 -499 0
-226 51 -411 141 -575 281 -38 31 -72 53 -76 49 -16 -17 -98 -279 -124 -397
-48 -214 -60 -326 -61 -557 0 -173 4 -231 19 -300 57 -262 172 -481 350 -667
187 -196 405 -323 669 -389 142 -36 379 -44 528 -19 505 84 911 432 1074 918
49 145 65 262 65 462 0 499 -127 1015 -360 1474 -69 134 -66 132 -80 70z
m-156 -1149 c14 -63 30 -160 36 -215 17 -138 17 -376 1 -450 -65 -296 -275
-530 -561 -626 -79 -27 -115 -33 -215 -37 -192 -7 -307 34 -435 155 -189 178
-222 468 -78 683 80 121 200 192 415 246 184 46 249 68 369 124 137 64 244
138 339 234 l80 81 12 -40 c7 -22 24 -92 37 -155z"/>
</g>
</svg>
